<?xml version="1.0" encoding="UTF-8" standalone="no"?>
<svg
   xmlns:dc="http://purl.org/dc/elements/1.1/"
   xmlns:cc="http://creativecommons.org/ns#"
   xmlns:rdf="http://www.w3.org/1999/02/22-rdf-syntax-ns#"
   xmlns:svg="http://www.w3.org/2000/svg"
   xmlns="http://www.w3.org/2000/svg"
   xmlns:sodipodi="http://sodipodi.sourceforge.net/DTD/sodipodi-0.dtd"
   xmlns:inkscape="http://www.inkscape.org/namespaces/inkscape"
   version="1.0"
   width="512"
   height="512"
   viewBox="0 0 383.99999 383.99999"
   preserveAspectRatio="xMidYMid meet"
   id="svg54"
   sodipodi:docname="Grapes.svg"
   inkscape:version="1.0.1 (c497b03c, 2020-09-10)"
   inkscape:export-filename="/Users/mastermakrela/Downloads/Grapes32.ico.png"
   inkscape:export-xdpi="6"
   inkscape:export-ydpi="6">
  <metadata
     id="metadata60">
    <rdf:RDF>
      <cc:Work
         rdf:about="">
        <dc:format>image/svg+xml</dc:format>
        <dc:type
           rdf:resource="http://purl.org/dc/dcmitype/StillImage" />
        <dc:title></dc:title>
      </cc:Work>
    </rdf:RDF>
  </metadata>
  <defs
     id="defs58" />
  <sodipodi:namedview
     pagecolor="#ffffff"
     bordercolor="#666666"
     borderopacity="1"
     objecttolerance="10"
     gridtolerance="10"
     guidetolerance="10"
     inkscape:pageopacity="0"
     inkscape:pageshadow="2"
     inkscape:window-width="2560"
     inkscape:window-height="1027"
     id="namedview56"
     showgrid="false"
     inkscape:pagecheckerboard="true"
     inkscape:zoom="0.95109123"
     inkscape:cx="126.19797"
     inkscape:cy="293.43275"
     inkscape:window-x="2560"
     inkscape:window-y="191"
     inkscape:window-maximized="0"
     inkscape:current-layer="svg54"
     units="px" />
  <g
     transform="matrix(0.09136082,0,0,-0.08939258,13.773354,394.87115)"
     fill="#000000"
     stroke="none"
     id="g52"
     style="fill:#ac0066;fill-opacity:1">
    <path
       d="m 668,4266 c -21,-7 -38,-11 -38,-8 0,3 -7,-3 -16,-14 -8,-10 -13,-13 -9,-6 4,8 -5,7 -29,-4 -19,-10 -32,-22 -29,-27 3,-6 1,-7 -5,-3 -7,4 -19,1 -29,-6 -36,-27 -133,-133 -133,-145 0,-6 -7,-19 -16,-27 -14,-15 -14,-16 0,-16 9,0 16,-4 16,-9 0,-5 -8,-8 -17,-7 -32,2 -53,-84 -49,-194 1,-52 6,-104 9,-115 3,-11 6,-28 6,-37 1,-9 8,-24 17,-32 8,-9 13,-16 10,-16 -11,0 31,-74 58,-103 32,-34 33,-47 5,-47 -15,0 -19,-4 -15,-16 5,-14 4,-15 -8,-5 -11,9 -17,9 -28,-1 -7,-7 -20,-14 -28,-16 -8,-2 -21,-10 -27,-19 -7,-9 -13,-13 -13,-9 0,5 -20,-13 -45,-39 -25,-25 -43,-51 -40,-56 4,-5 1,-9 -5,-9 -18,0 -50,-87 -56,-155 -7,-76 2,-158 18,-149 6,4 8,-1 3,-16 -5,-15 -4,-20 4,-16 6,4 9,1 5,-7 -3,-8 3,-23 13,-32 10,-10 17,-21 15,-24 -5,-12 40,-61 50,-55 6,4 8,3 5,-2 -3,-6 -3,-14 1,-20 11,-15 82,-67 82,-59 0,3 7,-1 16,-10 9,-9 22,-14 30,-11 7,3 14,1 16,-4 5,-15 110,-31 154,-24 21,3 47,6 56,6 10,-1 20,4 23,9 4,5 10,7 14,4 5,-2 16,4 26,15 10,11 21,20 24,20 3,0 7,-26 8,-57 3,-95 5,-113 15,-113 5,0 7,-9 3,-19 -4,-13 2,-26 15,-39 14,-12 18,-22 11,-26 -15,-9 32,-93 86,-155 50,-58 128,-112 149,-104 9,3 14,0 12,-7 -2,-7 14,-18 35,-26 26,-9 37,-10 37,-2 0,7 6,5 13,-4 13,-17 59,-35 55,-21 -2,4 1,10 6,13 5,3 10,-2 11,-10 2,-12 -7,-16 -34,-16 -46,-1 -114,-41 -106,-62 4,-12 3,-12 -8,-3 -12,9 -20,4 -41,-23 -29,-39 -31,-46 -13,-46 16,0 77,61 77,77 0,7 5,15 12,19 7,4 8,3 4,-4 -9,-15 -3,-15 28,-1 14,7 24,15 22,18 -2,3 14,7 35,8 22,2 49,7 60,13 15,8 24,8 34,0 8,-6 22,-10 32,-9 10,2 28,-2 41,-9 12,-7 22,-9 22,-5 0,4 7,0 15,-10 7,-11 11,-25 8,-32 -7,-21 26,-125 42,-131 7,-3 11,-12 8,-20 -3,-8 1,-14 11,-14 9,0 16,-8 16,-19 0,-20 22,-44 33,-36 4,3 5,2 2,-2 -3,-3 3,-15 12,-26 19,-20 25,-77 8,-77 -5,0 -4,-5 2,-11 15,-15 33,-3 33,22 0,23 11,24 50,4 22,-11 30,-12 30,-3 0,6 7,3 15,-8 8,-10 15,-14 15,-9 0,6 3,6 8,-1 13,-19 69,-25 76,-8 4,12 1,14 -14,9 -12,-4 -20,-2 -20,6 0,8 -5,8 -17,-2 -11,-10 -14,-10 -9,-1 4,7 2,12 -8,12 -8,0 -31,9 -50,21 -20,12 -36,17 -36,13 0,-5 -6,0 -14,11 -7,11 -16,48 -19,82 -8,77 -47,153 -104,202 -24,19 -43,44 -43,55 0,22 27,45 53,46 9,0 17,5 17,10 0,6 3,9 8,8 21,-4 130,67 135,89 1,4 17,21 35,37 22,19 32,36 29,48 -3,10 -1,16 4,13 12,-8 50,56 44,73 -5,14 9,8 37,-15 20,-18 35,1 18,22 -17,21 0,22 97,9 24,-3 40,-10 37,-15 -3,-5 -2,-8 3,-7 4,1 28,-10 53,-25 27,-16 38,-27 27,-27 -12,0 -16,-4 -11,-12 6,-9 3,-9 -9,1 -9,7 -35,14 -57,14 -21,1 -37,3 -35,6 3,2 -14,12 -36,23 -39,17 -59,17 -59,-1 0,-13 98,-50 120,-46 11,2 20,-1 20,-6 0,-6 15,-10 33,-9 68,4 69,3 52,-30 -18,-35 -31,-141 -20,-167 8,-17 9,-26 13,-76 1,-11 7,-15 14,-11 7,4 8,3 4,-4 -10,-16 22,-74 36,-66 6,4 8,3 5,-3 -4,-6 9,-23 27,-37 37,-28 42,-26 57,27 25,84 23,196 -4,180 -7,-4 -5,2 3,12 11,13 12,19 3,22 -7,2 -9,11 -6,19 3,8 0,14 -6,14 -6,0 -11,9 -11,20 0,11 -5,20 -11,20 -5,0 -8,4 -5,8 3,5 -2,18 -12,28 -24,28 -25,44 -2,44 12,0 20,7 20,16 0,13 3,14 14,5 9,-8 21,-9 33,-3 10,5 39,19 66,32 26,12 47,27 47,32 0,5 4,7 9,3 5,-3 13,-1 16,5 5,8 11,8 20,0 8,-7 20,-8 26,-4 8,4 9,3 5,-5 -4,-7 2,-15 16,-20 13,-4 21,-12 20,-16 -2,-4 11,-17 29,-29 18,-11 30,-15 25,-8 -4,6 -2,12 3,12 6,0 11,-7 11,-15 0,-13 22,-30 42,-34 4,-1 23,-8 42,-16 20,-8 40,-15 46,-15 6,0 -3,-20 -19,-44 -17,-24 -27,-46 -24,-50 4,-3 1,-6 -5,-6 -13,0 -46,-96 -38,-115 3,-8 1,-15 -4,-15 -6,0 -10,-26 -9,-59 1,-32 -3,-67 -9,-77 -6,-10 -12,-15 -12,-11 0,4 -10,2 -22,-5 -32,-17 -43,-19 -127,-23 -51,-2 -77,-7 -80,-16 -4,-8 -24,-15 -46,-16 -77,-5 -168,-53 -99,-53 19,0 25,4 21,14 -4,10 -1,13 9,9 8,-3 14,1 14,8 0,11 2,11 10,-1 6,-10 12,-12 19,-5 6,6 46,8 103,4 96,-6 157,-27 205,-71 12,-11 26,-17 32,-14 5,4 13,1 17,-5 4,-8 3,-9 -4,-5 -7,4 -12,3 -12,-2 0,-6 7,-12 15,-15 32,-13 99,-189 90,-237 -2,-11 1,-23 7,-26 7,-5 8,-2 3,6 -6,9 -4,11 4,6 12,-8 7,-20 -7,-22 -32,-4 -80,-60 -86,-99 -1,-8 -5,-18 -9,-21 -4,-4 -1,-14 6,-22 9,-13 9,-14 0,-8 -9,5 -13,1 -14,-11 -2,-58 -30,-92 -78,-94 -91,-5 -141,-18 -141,-37 0,-13 -2,-14 -9,-3 -6,9 -10,10 -12,2 -3,-7 -11,-13 -19,-14 -8,-2 -20,-6 -26,-10 -18,-11 -74,13 -74,31 -1,40 -81,101 -154,117 -47,11 -53,15 -74,59 -19,40 -25,46 -37,36 -10,-8 -14,-25 -12,-46 3,-18 0,-31 -4,-28 -5,3 -9,-5 -9,-17 0,-12 -8,-31 -17,-42 -11,-12 -12,-17 -4,-12 9,5 12,4 7,-3 -4,-6 -13,-9 -21,-6 -19,8 -60,-57 -42,-68 9,-5 7,-8 -4,-8 -24,0 -57,-66 -41,-82 7,-7 12,-20 12,-30 0,-10 4,-18 8,-18 4,0 8,-10 9,-22 1,-11 7,-24 13,-28 7,-4 11,-10 11,-14 -1,-13 11,-36 18,-32 4,3 5,-11 3,-30 -3,-26 -12,-38 -33,-50 -16,-8 -29,-19 -29,-25 0,-6 -4,-8 -9,-5 -5,3 -29,-17 -55,-46 -34,-38 -43,-54 -35,-64 7,-8 7,-14 -1,-19 -6,-4 -9,-1 -8,7 2,8 -10,13 -37,13 -22,1 -61,11 -87,24 -26,12 -51,20 -56,17 -5,-3 -9,1 -9,9 0,8 5,11 10,8 6,-3 2,5 -9,19 -10,14 -23,23 -28,20 -5,-3 -6,0 -2,6 4,6 1,23 -7,38 -12,23 -10,85 4,143 7,26 -21,23 -31,-4 -13,-35 -13,-125 1,-125 5,0 7,-5 4,-11 -9,-14 13,-66 32,-73 8,-3 12,-10 9,-15 -9,-14 55,-60 72,-53 9,3 13,1 9,-5 -3,-5 -1,-10 6,-11 21,-3 51,-10 74,-17 20,-6 22,-12 15,-44 -10,-51 -8,-161 3,-169 6,-4 12,-18 13,-31 10,-69 121,-171 213,-194 29,-8 55,-11 57,-6 2,5 12,4 23,-1 14,-8 19,-7 19,1 0,8 4,8 15,-1 11,-10 19,-10 27,-2 6,6 16,8 24,5 19,-7 110,42 155,84 36,34 72,94 72,119 0,12 34,7 53,-8 14,-10 50,-20 82,-22 12,0 22,-5 22,-9 0,-12 126,-2 178,14 23,6 42,16 42,21 0,5 4,7 9,3 6,-3 9,3 8,14 -1,17 -3,17 -23,5 -12,-8 -32,-17 -45,-19 -12,-3 -26,-10 -30,-16 -4,-7 -8,-8 -10,-1 -3,7 -17,8 -39,3 -41,-8 -140,9 -191,34 -35,17 -35,18 -31,70 5,63 -13,149 -36,167 -13,11 -14,11 -7,-1 5,-10 4,-12 -4,-7 -8,5 -9,12 -2,20 12,14 -33,76 -55,76 -8,0 -13,4 -10,9 7,10 -18,33 -56,52 l -27,14 34,44 c 19,24 32,48 28,54 -3,5 -1,7 4,4 20,-12 44,34 47,91 0,12 4,22 8,22 4,0 9,9 13,19 5,15 14,18 45,16 22,-2 42,0 45,5 2,4 15,5 28,3 14,-3 31,2 39,11 9,8 18,13 21,10 3,-3 22,2 43,11 83,36 94,37 105,7 27,-76 105,-167 134,-155 10,3 15,1 13,-7 -3,-14 54,-38 95,-39 19,-1 26,3 21,11 -5,7 -3,8 5,4 7,-5 10,-10 8,-13 -3,-2 2,-25 9,-50 8,-25 14,-75 14,-110 0,-46 3,-62 12,-57 7,4 8,3 4,-4 -4,-7 -2,-12 5,-12 9,0 10,25 6,97 -4,53 -10,99 -14,102 -18,13 -12,31 10,31 47,0 118,33 162,74 43,41 59,66 33,50 -7,-4 1,6 18,22 30,28 54,98 54,155 0,34 -30,128 -46,144 -8,8 -14,18 -14,22 1,4 -3,9 -9,11 -7,2 -10,-6 -7,-20 2,-12 9,-22 16,-20 6,1 9,-2 5,-8 -3,-5 -1,-20 6,-32 7,-12 14,-41 16,-63 2,-22 8,-41 13,-43 6,-2 10,-8 10,-13 0,-6 -4,-8 -9,-4 -11,6 -26,-33 -17,-42 3,-4 -1,-17 -9,-29 -11,-17 -12,-24 -2,-27 7,-3 4,-6 -6,-6 -10,-1 -15,-6 -12,-11 3,-6 -1,-13 -9,-16 -9,-3 -16,-11 -16,-18 0,-6 -25,-28 -55,-48 -30,-19 -51,-39 -47,-43 4,-5 1,-5 -6,-1 -18,11 -54,-3 -45,-17 4,-7 0,-6 -10,1 -9,8 -22,12 -29,9 -7,-2 -25,16 -41,41 -16,24 -37,47 -48,49 -10,3 -17,9 -14,13 7,12 -66,70 -87,70 -29,0 -21,-17 20,-41 20,-13 48,-36 61,-52 13,-15 29,-26 36,-23 8,3 11,-2 8,-15 -3,-11 0,-19 6,-19 7,0 9,-5 5,-11 -10,-16 -81,-2 -106,21 -17,16 -24,17 -37,7 -12,-9 -13,-9 -7,0 8,15 -33,75 -46,67 -5,-3 -7,-2 -6,3 4,17 -14,53 -24,47 -7,-4 -8,-2 -4,5 4,6 2,20 -6,29 -12,15 -11,16 5,3 9,-7 17,-10 17,-7 0,4 7,0 16,-9 18,-18 35,-16 42,5 3,9 -1,11 -12,7 -10,-4 -15,-3 -11,3 3,6 -1,11 -9,11 -66,6 -71,29 -21,95 19,25 33,50 29,55 -3,5 -1,9 5,9 9,0 15,20 27,85 3,17 15,38 27,48 12,10 16,15 8,11 -10,-5 -12,-3 -7,5 5,7 14,10 21,7 7,-2 17,0 23,6 19,19 231,13 250,-7 4,-5 0,-4 -8,0 -13,7 -13,6 -2,-7 7,-9 22,-14 35,-11 15,3 18,2 9,-4 -9,-7 -6,-15 12,-32 15,-14 26,-19 31,-12 11,20 -14,47 -79,84 l -31,17 h 27 c 37,0 80,18 73,30 -4,6 -12,7 -18,3 -16,-10 -126,-10 -120,-1 2,5 -6,8 -19,7 -13,0 -17,-3 -10,-6 6,-2 12,-12 12,-21 0,-13 -3,-12 -15,5 -14,21 -151,91 -167,85 -5,-1 -7,1 -6,5 2,5 1,8 -2,8 -11,0 -78,82 -104,128 -16,26 -32,45 -36,42 -5,-3 -7,3 -5,14 2,11 -1,35 -6,54 -5,19 -11,50 -12,68 -2,19 -6,40 -11,47 -4,6 -3,12 2,12 6,0 11,15 11,33 4,74 6,95 12,91 10,-6 40,67 33,79 -4,7 -4,9 1,5 9,-8 42,31 37,45 -1,4 5,7 13,7 15,0 19,-21 15,-89 -1,-19 4,-37 12,-42 10,-7 9,-9 -4,-9 -10,0 -18,-4 -18,-8 0,-5 7,-9 15,-9 21,0 27,31 23,106 -2,33 0,61 5,61 5,0 8,8 5,18 -3,15 24,51 45,60 4,2 26,12 49,22 24,11 49,20 56,20 6,0 12,3 12,8 0,4 18,8 40,9 22,0 48,7 57,15 9,7 14,8 10,2 -6,-10 58,-24 134,-28 14,0 26,-6 26,-12 0,-6 -7,-9 -16,-7 -9,2 -26,-5 -39,-17 -12,-11 -22,-19 -22,-16 0,3 -26,-4 -58,-15 -66,-24 -79,-27 -109,-28 -16,-1 -21,-6 -17,-16 5,-13 9,-13 22,-3 13,11 14,11 7,-2 -7,-12 -6,-13 6,-4 8,6 22,10 31,9 9,-2 22,3 28,10 6,8 17,12 25,9 18,-7 97,30 88,41 -5,4 -1,6 8,3 8,-3 26,2 39,12 22,17 24,17 56,-2 18,-11 38,-17 44,-13 6,4 9,2 8,-3 -3,-11 40,-52 54,-52 4,0 8,-6 8,-13 0,-18 66,-81 74,-69 3,5 -6,22 -19,36 -14,15 -25,31 -25,36 0,15 -61,60 -72,54 -6,-4 -8,-2 -5,3 4,6 -8,20 -25,31 -24,16 -35,18 -40,9 -6,-9 -8,-8 -8,2 0,7 28,40 62,72 35,32 60,59 56,59 -4,0 4,12 18,27 13,14 22,28 20,31 -3,2 2,11 10,19 8,8 12,19 9,24 -4,5 -2,9 4,9 5,0 13,10 16,23 4,12 13,36 21,53 30,68 40,239 18,315 -3,12 3,18 21,21 14,3 28,1 31,-3 3,-5 17,-7 32,-4 15,3 41,7 57,9 70,8 143,56 196,130 16,21 29,50 29,63 0,13 4,22 9,19 11,-7 21,42 21,99 0,25 -5,45 -12,48 -9,4 -10,6 -1,6 27,2 -35,136 -67,146 -11,4 -18,10 -15,15 6,10 -52,60 -71,60 -8,0 -14,6 -14,13 0,8 -4,7 -10,-3 -14,-22 -12,-33 6,-26 8,3 13,2 10,-3 -6,-9 44,-47 57,-43 4,1 6,-4 5,-10 -2,-8 5,-12 16,-10 11,2 15,-1 11,-8 -10,-15 23,-62 38,-54 9,5 9,4 0,-6 -8,-9 -9,-20 -1,-39 6,-14 10,-37 9,-50 -1,-21 1,-22 17,-10 15,13 16,12 3,-4 -12,-16 -18,-40 -24,-109 -1,-10 -4,-18 -8,-18 -4,0 -12,-14 -19,-30 -7,-17 -36,-51 -64,-77 -28,-25 -50,-50 -48,-55 1,-5 -2,-7 -7,-4 -5,4 -12,2 -16,-4 -3,-5 -12,-10 -18,-10 -7,0 -6,4 3,10 9,6 10,10 3,10 -6,0 -14,-4 -17,-9 -9,-14 -181,-8 -182,7 -1,6 -3,14 -4,17 -1,3 -3,8 -5,13 -7,26 -48,108 -65,129 -17,22 -20,23 -20,7 0,-30 54,-133 67,-129 7,2 10,-2 6,-11 -3,-7 -9,-14 -13,-14 -5,0 -7,-8 -5,-17 1,-10 9,-16 16,-15 8,2 11,0 7,-3 -4,-4 -3,-16 3,-26 10,-20 28,-209 19,-209 -3,0 -11,-28 -18,-62 -17,-82 -16,-78 -35,-115 -13,-24 -14,-33 -4,-36 7,-3 5,-6 -5,-6 -19,-1 -42,-36 -33,-51 3,-5 0,-12 -6,-16 -8,-5 -10,-2 -5,7 4,8 1,5 -6,-5 -7,-10 -25,-30 -40,-44 -15,-14 -25,-30 -21,-36 3,-6 3,-8 -2,-4 -4,4 -21,-4 -38,-18 -30,-25 -44,-26 -93,-7 -12,5 -15,3 -9,-6 6,-10 3,-11 -14,-2 -11,7 -21,8 -21,4 0,-4 -4,-2 -9,6 -7,10 -13,11 -31,1 -15,-8 -20,-8 -16,-1 5,7 -3,11 -19,11 -18,0 -24,-4 -19,-12 6,-10 4,-10 -7,0 -14,13 -33,17 -26,5 3,-5 -14,-9 -36,-10 -23,-1 -43,-6 -45,-12 -2,-5 -10,-7 -19,-4 -11,4 -14,3 -9,-6 5,-8 3,-12 -5,-10 -24,3 -37,-1 -51,-13 -29,-27 -82,-52 -86,-40 -2,7 -10,12 -18,12 -8,0 -13,3 -13,8 4,22 -5,36 -41,72 -42,41 -105,78 -127,74 -7,-1 -19,-2 -25,-3 -7,-1 -1,-9 15,-17 15,-8 31,-12 36,-10 5,3 11,0 14,-8 4,-9 14,-12 25,-9 11,2 23,0 26,-6 5,-7 1,-9 -11,-5 -15,6 -15,4 2,-9 11,-8 24,-13 29,-10 5,4 6,1 2,-5 -3,-5 6,-20 21,-32 16,-12 22,-18 14,-14 -9,5 -7,-2 5,-18 10,-14 22,-24 26,-21 4,2 5,-3 2,-11 -6,-17 -13,-15 -109,28 -38,17 -88,48 -110,68 -22,21 -44,38 -49,38 -5,0 -1,9 9,20 10,11 22,17 28,13 6,-3 7,-1 3,5 -4,7 0,12 10,12 41,0 1,11 -56,16 -43,3 -59,1 -55,-7 5,-6 0,-9 -11,-8 -49,8 -164,-47 -149,-71 3,-5 -1,-10 -10,-10 -10,0 -13,5 -9,12 4,7 3,8 -5,4 -6,-4 -9,-12 -6,-17 4,-5 -1,-9 -9,-9 -18,0 -21,-16 -6,-25 5,-3 22,6 37,21 44,42 197,105 177,73 -3,-5 -1,-16 6,-24 9,-10 7,-13 -6,-11 -10,2 -33,-8 -52,-21 -19,-12 -41,-23 -49,-23 -8,0 -11,-4 -8,-10 3,-5 0,-7 -9,-4 -8,3 -21,2 -28,-2 -7,-5 -20,-9 -28,-9 -8,0 -14,-5 -13,-11 1,-6 -5,-11 -13,-11 -7,0 -12,3 -9,5 3,3 0,11 -6,19 -8,9 -15,10 -24,3 -8,-7 -17,-4 -30,10 -10,11 -24,20 -32,20 -7,0 -13,4 -13,9 0,5 -15,14 -32,21 -18,7 -43,17 -55,22 -11,6 -26,7 -32,4 -6,-4 -11,-2 -11,4 0,6 -20,10 -50,9 -39,-2 -54,2 -65,17 -10,13 -14,15 -15,5 0,-11 -5,-10 -20,4 -19,17 -20,17 -21,-1 -1,-10 -1,-22 0,-26 1,-6 -33,-21 -54,-23 -5,0 -9,-6 -8,-13 2,-6 -4,-9 -12,-6 -7,3 -22,0 -32,-6 -17,-11 -17,-11 0,-6 11,4 16,2 12,-5 -4,-5 -14,-9 -23,-7 -27,5 -97,-56 -86,-74 4,-6 3,-8 -4,-4 -6,3 -20,-6 -31,-21 -17,-20 -19,-28 -9,-35 8,-5 17,-2 23,8 6,9 22,30 37,45 15,16 24,29 20,29 -4,0 4,6 18,13 14,8 48,28 77,45 28,17 53,28 56,26 2,-3 16,0 31,6 26,10 27,9 12,-12 -12,-16 -13,-25 -4,-35 8,-11 7,-12 -6,-7 -10,4 -16,1 -16,-9 0,-8 -3,-17 -8,-19 -4,-1 -26,-28 -50,-58 -24,-30 -61,-65 -83,-78 -22,-13 -37,-27 -34,-33 3,-5 -1,-6 -9,-3 -9,3 -16,1 -16,-5 0,-6 -9,-11 -21,-11 -11,0 -29,-5 -39,-10 -16,-9 -18,-7 -15,10 2,11 7,25 11,32 4,6 8,23 10,37 l 3,26 -20,-24 c -10,-13 -19,-29 -19,-37 0,-40 -16,-64 -44,-64 -26,0 -50,-22 -38,-35 4,-5 1,-5 -6,-1 -7,4 -10,12 -7,17 8,12 -23,7 -55,-10 -22,-11 -23,-11 -7,2 16,13 12,15 -40,22 -32,4 -59,7 -60,6 -2,0 -18,6 -38,15 -19,8 -35,12 -35,8 0,-3 -13,4 -28,15 -21,14 -32,17 -40,9 -7,-7 -10,-6 -9,5 1,8 -26,39 -60,70 -34,30 -60,57 -57,59 2,3 -6,13 -18,24 -16,13 -19,14 -10,2 10,-12 10,-18 1,-24 -7,-4 -9,-3 -5,4 3,6 2,13 -4,17 -6,4 -8,11 -4,16 9,16 -39,119 -56,120 -8,0 -10,3 -5,5 7,3 9,39 7,100 l -4,96 33,28 c 32,27 30,36 -8,31 -16,-2 -2,47 31,106 14,25 24,48 21,52 -2,4 1,8 8,8 7,0 19,2 27,4 10,3 14,-2 12,-16 -2,-11 -4,-28 -5,-37 -1,-9 -5,-14 -9,-12 -4,3 -8,1 -8,-4 0,-5 -14,-27 -31,-48 -17,-21 -26,-40 -20,-42 22,-7 50,21 82,83 30,56 38,65 62,65 20,0 26,4 21,13 -5,7 0,6 11,-3 10,-8 16,-10 12,-3 -5,7 5,11 29,11 20,0 39,4 43,9 3,4 13,9 21,11 8,2 29,13 47,25 23,15 29,25 22,33 -7,9 -5,11 9,7 20,-5 58,40 47,57 -3,6 1,10 9,10 8,0 19,7 24,16 7,13 20,16 60,12 28,-3 49,-1 46,4 -3,4 11,-2 31,-13 20,-12 38,-19 42,-16 3,3 12,-1 21,-9 12,-13 16,-13 23,-2 7,10 9,10 9,-3 0,-8 20,-28 45,-43 59,-37 60,-57 4,-45 -29,7 -45,6 -55,-2 -11,-9 -14,-8 -14,6 0,9 -6,15 -12,13 -7,-3 -26,3 -41,13 -16,9 -38,15 -50,12 -18,-4 -19,-3 -7,6 12,8 12,11 2,11 -8,0 -27,9 -43,21 -16,11 -29,17 -29,12 0,-4 -5,-1 -10,7 -7,11 -12,12 -21,3 -9,-9 0,-19 37,-42 26,-17 56,-31 66,-31 10,0 18,-5 18,-11 0,-6 7,-9 15,-5 8,3 15,1 15,-5 0,-6 6,-9 14,-6 8,3 16,1 18,-4 2,-5 14,-11 28,-13 14,-2 33,-7 43,-11 9,-4 26,-5 36,-2 17,4 17,1 8,-36 -7,-29 -7,-45 2,-58 9,-15 8,-19 -1,-17 -8,2 -12,-6 -11,-22 1,-14 3,-44 4,-68 1,-24 6,-45 10,-48 5,-2 5,-12 2,-21 -5,-12 -3,-14 6,-8 10,5 11,2 6,-14 -4,-13 -2,-21 5,-21 6,0 8,-4 5,-10 -3,-5 2,-10 12,-10 12,0 14,-3 6,-8 -17,-11 32,-93 51,-86 11,4 6,22 -24,77 -21,40 -41,90 -45,112 -9,52 -10,173 -2,182 4,3 2,12 -4,19 -17,20 25,38 51,22 11,-7 20,-16 20,-20 0,-4 9,-6 19,-5 11,0 17,5 15,9 -3,5 -10,6 -15,3 -5,-3 -6,1 -3,9 3,9 16,16 29,16 35,0 85,12 85,20 0,12 -32,22 -39,13 -9,-13 -99,-9 -112,4 -9,9 -7,20 10,48 11,20 17,34 13,31 -5,-3 -9,1 -9,8 0,8 5,12 12,10 11,-5 65,48 65,63 0,5 18,16 40,26 22,10 40,23 40,28 0,16 -47,10 -61,-8 -12,-14 -12,-16 0,-8 10,6 12,4 7,-4 -5,-7 -14,-10 -21,-7 -15,5 -49,-27 -38,-37 3,-4 0,-7 -8,-7 -19,0 -63,-66 -53,-81 4,-8 3,-9 -5,-5 -6,4 -14,0 -17,-9 -5,-11 -10,-13 -19,-5 -6,5 -15,7 -18,3 -4,-3 -7,-1 -7,5 0,7 -12,12 -26,12 -14,0 -22,4 -19,10 7,11 -54,52 -67,44 -4,-3 -8,0 -8,5 0,6 -3,10 -7,9 -5,0 -16,2 -26,7 -9,4 -30,5 -47,3 -17,-3 -27,0 -23,5 4,6 -3,8 -15,5 -14,-4 -20,-2 -15,5 4,6 -2,8 -16,4 -20,-5 -21,-3 -16,31 l 6,37 -21,-24 c -11,-13 -19,-30 -16,-37 3,-9 -5,-12 -25,-12 -16,1 -27,3 -24,6 4,5 -40,70 -56,82 -3,3 -18,28 -33,57 l -26,52 47,45 c 54,51 59,50 96,-24 14,-27 27,-47 31,-45 3,3 3,1 -1,-5 -5,-5 -6,-32 -5,-60 3,-38 7,-48 16,-41 6,5 13,24 14,42 3,43 -25,139 -43,146 -8,3 -13,9 -10,13 2,4 -5,16 -17,26 -12,11 -18,13 -13,5 6,-10 4,-12 -4,-7 -8,6 -9,12 -2,20 6,7 8,16 4,19 -3,4 0,7 9,7 18,0 62,95 52,111 -4,8 -3,9 4,5 17,-10 15,9 -2,23 -12,10 -16,5 -27,-26 -7,-21 -12,-40 -12,-43 0,-3 -7,-11 -14,-18 -7,-8 -11,-18 -8,-23 4,-5 1,-9 -5,-9 -6,0 -9,-4 -6,-9 3,-5 -6,-11 -20,-14 -18,-3 -24,-1 -20,9 6,16 -69,59 -84,49 -6,-3 -10,-1 -10,5 0,7 -7,9 -17,5 -15,-5 -16,-4 -5,6 6,7 12,32 12,56 0,28 -4,43 -12,43 -7,0 -5,5 5,11 11,6 17,20 16,32 -2,12 3,32 9,45 7,12 14,35 15,51 1,16 4,27 6,25 4,-4 78,107 83,124 4,13 22,29 35,29 6,0 10,-4 7,-9 -3,-4 0,-8 6,-8 6,0 8,-4 5,-10 -3,-5 -1,-10 5,-10 6,0 9,-4 6,-9 -3,-5 -1,-24 5,-42 6,-19 13,-41 15,-49 5,-13 6,-13 14,0 6,8 10,10 10,4 0,-6 -3,-14 -7,-18 -4,-4 -8,-39 -10,-78 -1,-39 -4,-76 -7,-83 -3,-8 1,-18 8,-24 22,-19 40,57 33,143 -3,42 -9,81 -13,88 -5,7 -9,18 -9,23 -2,26 -18,65 -27,65 -5,0 -7,4 -3,9 3,5 1,12 -4,16 -18,11 -7,46 16,51 13,4 23,10 23,15 0,5 7,9 15,9 9,0 18,7 21,15 4,8 9,13 14,10 4,-2 17,5 28,15 12,11 25,19 29,18 4,0 20,4 34,10 15,6 43,14 63,17 20,4 34,10 32,14 -2,3 14,5 36,3 24,-3 44,1 51,8 9,10 8,12 -5,7 -10,-4 -18,-3 -18,1 0,4 -10,9 -22,10 -33,3 -119,-18 -113,-28 3,-5 -3,-6 -13,-3 -11,2 -25,-1 -33,-9 -8,-7 -21,-14 -29,-16 -8,-2 -21,-8 -30,-13 -12,-9 -12,-10 3,-5 11,4 16,2 12,-5 -4,-5 -14,-9 -24,-7 -18,3 -65,-23 -94,-53 -24,-25 -31,-24 -47,6 -22,41 -170,151 -170,127 0,-4 -4,-1 -8,5 -4,7 -19,14 -32,15 -14,2 -28,7 -31,12 -12,16 -210,17 -251,2 z m 212,-13 c 0,-3 -9,-3 -20,0 -11,3 -23,1 -26,-4 -3,-5 17,-9 45,-9 27,0 51,-5 53,-10 2,-6 13,-12 26,-13 12,0 22,-4 22,-7 0,-8 63,-41 86,-44 11,-2 18,-10 16,-19 -3,-18 34,-47 63,-48 19,0 19,-1 1,-8 -16,-6 -17,-8 -4,-13 19,-8 13,-58 -7,-58 -7,0 -26,-21 -43,-47 -23,-35 -28,-51 -20,-60 8,-10 7,-12 -4,-8 -18,7 -49,-60 -69,-148 -10,-47 -10,-63 0,-79 7,-11 8,-17 2,-14 -5,4 -11,-4 -13,-16 -3,-20 -12,-24 -68,-33 -36,-6 -75,-16 -87,-23 -13,-7 -23,-10 -23,-7 0,10 -44,-17 -53,-32 -5,-7 -12,-11 -17,-8 -9,5 -70,-66 -70,-82 0,-5 7,-10 15,-10 8,0 15,4 15,8 0,16 77,80 117,96 30,13 41,22 37,33 -4,12 -3,12 7,3 9,-9 16,-10 26,-2 7,7 13,8 13,3 0,-5 20,-9 45,-8 25,0 45,-4 46,-10 5,-55 13,-103 24,-136 5,-14 -2,-23 -27,-36 -18,-9 -37,-23 -41,-30 -4,-8 -13,-14 -20,-14 -7,0 -6,4 3,11 11,8 9,9 -10,3 -14,-4 -27,-9 -30,-13 -13,-17 -76,-9 -100,13 -35,32 -110,78 -111,69 -1,-5 -1,-11 0,-15 1,-11 -29,-2 -42,12 -10,12 -9,12 5,2 10,-8 19,-9 22,-3 7,10 -32,27 -41,18 -2,-3 0,-15 7,-26 15,-29 -6,-73 -24,-49 -6,8 -28,23 -49,33 -29,14 -35,20 -24,26 8,5 29,4 46,-1 28,-8 32,-7 29,8 -3,14 -15,17 -66,17 -34,0 -62,4 -62,9 0,4 -6,6 -14,3 -14,-6 -31,18 -27,40 1,6 -3,14 -9,18 -5,3 -10,1 -10,-4 0,-6 -4,-11 -10,-11 -5,0 -7,7 -4,15 8,20 -14,72 -32,79 -7,3 -11,11 -8,19 2,7 0,24 -5,38 -5,13 -10,17 -11,9 0,-13 -1,-13 -10,0 -5,8 -5,17 0,20 5,3 6,39 1,83 -4,43 -3,81 2,86 5,5 10,27 10,49 1,22 5,38 8,36 11,-6 29,45 22,63 -4,10 -2,14 4,10 6,-4 18,4 27,18 17,25 18,42 3,37 -5,-1 -6,2 -2,8 3,6 10,8 14,5 5,-2 17,2 27,10 17,13 17,16 4,25 -12,8 -10,10 10,8 18,-2 25,2 24,13 -1,9 5,16 12,16 7,0 10,-5 7,-10 -3,-6 -1,-7 5,-3 7,4 12,14 12,22 0,8 4,12 10,9 13,-8 90,32 90,48 0,9 2,9 8,0 5,-8 13,-9 22,-3 8,6 32,10 53,10 21,0 36,4 33,8 -3,5 14,7 38,5 24,-3 46,0 50,5 6,10 46,5 46,-5 z m 320,-189 c 0,-8 -19,-13 -24,-6 -3,5 1,9 9,9 8,0 15,-2 15,-3 z m -121,-513 c 20,-11 44,-28 51,-38 8,-10 10,-15 5,-10 -11,9 -46,-23 -38,-36 3,-6 1,-7 -5,-3 -6,3 -14,0 -19,-8 -17,-30 -35,-22 -38,17 -2,21 -11,44 -20,53 -17,17 -20,28 -5,19 6,-3 10,1 10,9 0,21 13,20 59,-3 z M 519,3402 c 36,-27 47,-30 59,-19 13,10 15,9 9,-5 -4,-12 0,-19 14,-23 15,-5 19,-16 19,-57 0,-52 26,-159 38,-155 4,1 8,-1 9,-6 9,-30 36,-67 48,-67 8,0 14,-6 13,-12 -2,-7 3,-12 10,-10 6,1 12,-2 12,-8 0,-5 13,-16 29,-24 21,-11 29,-22 27,-40 0,-13 -4,-22 -8,-20 -8,5 -25,-23 -29,-51 -2,-11 -10,-25 -18,-31 -7,-5 -14,-23 -15,-40 -4,-43 -22,-71 -51,-78 -14,-4 -35,-16 -47,-28 -19,-19 -21,-19 -14,-3 6,18 6,18 -12,2 -15,-13 -21,-14 -31,-4 -11,9 -14,9 -18,-1 -4,-10 -8,-10 -20,-1 -8,8 -13,8 -11,2 2,-6 -1,-11 -7,-11 -5,0 -9,4 -8,8 1,4 -12,7 -30,5 -18,-1 -38,3 -46,9 -12,9 -13,8 -6,-4 6,-11 3,-10 -11,2 -16,14 -23,15 -33,5 -10,-9 -11,-9 -6,4 7,18 -19,34 -37,22 -7,-3 -8,-1 -4,5 7,12 -26,34 -46,30 -7,-2 -12,3 -10,11 4,18 -38,62 -51,54 -6,-3 -7,-1 -3,5 4,7 3,12 -3,12 -6,0 -8,6 -5,14 3,7 -2,21 -11,30 -9,9 -14,16 -10,16 3,0 3,6 -2,13 -18,29 -26,177 -12,214 7,20 6,28 -3,35 -10,6 -8,8 5,8 15,0 22,11 18,33 0,4 3,7 8,7 8,0 26,36 24,50 0,7 36,40 43,39 3,0 18,10 34,24 15,14 37,28 49,32 11,3 21,10 21,14 0,4 10,7 22,8 12,1 28,9 37,17 8,9 17,12 20,7 4,-4 26,-22 50,-39 z m 209,-4 c 6,-1 10,-4 7,-6 -2,-3 4,-12 14,-21 17,-15 17,-18 3,-31 -14,-13 -15,-12 -9,3 6,15 1,17 -28,15 -40,-2 -61,13 -51,37 4,13 13,15 29,10 12,-3 28,-7 35,-7 z m 318,-36 c 9,-13 20,-19 27,-15 8,5 8,2 -1,-9 -10,-12 -10,-17 1,-27 8,-6 16,-8 20,-5 3,3 3,-2 1,-13 -3,-12 6,-29 25,-48 17,-17 31,-33 31,-37 0,-3 -23,-11 -50,-18 -28,-7 -53,-16 -56,-21 -3,-5 -12,-9 -20,-9 -8,0 -31,-11 -52,-24 -33,-21 -40,-22 -57,-10 -10,8 -13,14 -7,14 18,0 14,40 -4,47 -13,5 -13,7 -2,14 10,7 11,9 0,9 -7,0 -10,4 -7,10 7,11 -25,70 -38,70 -4,0 -5,6 -1,13 5,7 0,6 -11,-3 -17,-14 -17,-14 -6,5 7,12 25,22 40,23 42,3 87,21 105,41 22,24 42,21 62,-7 z m -261,8 c 3,-6 -1,-7 -9,-4 -18,7 -21,14 -7,14 6,0 13,-4 16,-10 z m -120,-29 c -6,-11 98,-26 114,-17 6,4 21,-4 33,-16 13,-13 26,-23 30,-23 3,0 10,-4 15,-9 5,-5 3,-6 -4,-2 -18,10 -16,-9 2,-28 9,-8 15,-17 15,-18 -1,-2 1,-10 3,-18 16,-51 23,-99 16,-123 -4,-15 -5,-39 -3,-53 3,-18 1,-25 -8,-21 -7,2 -12,10 -11,16 4,14 -10,14 -23,1 -6,-6 -19,-4 -38,5 -15,8 -33,12 -40,8 -6,-3 -8,-3 -4,2 4,4 -8,23 -27,42 -19,19 -42,47 -50,63 -9,17 -19,30 -24,30 -5,0 -7,9 -4,20 3,11 1,26 -4,33 -15,19 -5,117 12,117 4,0 4,-4 0,-9 z m 442,-167 c -3,-3 -12,-4 -19,-1 -8,3 -5,6 6,6 11,1 17,-2 13,-5 z m 88,-13 c 3,-5 1,-13 -5,-16 -8,-5 -8,-11 0,-20 9,-10 7,-16 -8,-24 -11,-6 -21,-8 -24,-6 -3,3 -15,-7 -29,-22 -13,-14 -18,-23 -10,-18 10,5 12,4 7,-4 -4,-6 -13,-11 -19,-9 -7,1 -29,-6 -50,-15 -21,-9 -61,-20 -89,-23 l -51,-7 5,27 c 4,19 2,26 -7,22 -8,-3 -12,2 -11,12 2,9 9,18 17,20 11,3 11,1 -1,-7 -8,-6 -11,-11 -6,-11 11,0 71,52 69,60 -1,3 8,7 20,7 12,1 47,10 77,22 60,21 106,26 115,12 z m -155,-16 c 0,-7 -30,-13 -34,-7 -3,4 4,9 15,9 10,1 19,0 19,-2 z m 2580,1 c 0,-2 -7,-7 -16,-10 -8,-3 -12,-2 -9,4 6,10 25,14 25,6 z M 855,2870 c -3,-5 -12,-10 -18,-10 -7,0 -6,4 3,10 19,12 23,12 15,0 z m -95,-86 c 0,-8 -19,-13 -24,-6 -3,5 1,9 9,9 8,0 15,-2 15,-3 z m 1316,-467 c 3,-9 9,-15 13,-13 4,3 7,-3 8,-12 1,-28 25,-136 32,-152 4,-8 2,-26 -5,-40 -10,-19 -10,-27 -1,-39 9,-12 9,-13 0,-7 -7,4 -13,3 -13,-1 0,-5 -7,-18 -15,-29 -8,-10 -14,-14 -13,-9 4,13 -37,66 -46,60 -3,-3 -4,-2 -2,1 3,3 -4,28 -15,55 -20,53 -25,134 -10,187 7,22 6,32 -2,32 -6,0 -2,7 9,14 17,13 21,13 36,-7 10,-12 20,-30 24,-40 z m -1171,4 c 3,-5 0,-13 -6,-17 -7,-4 -9,-3 -5,4 3,5 0,13 -6,15 -9,4 -10,6 -1,6 6,1 14,-3 18,-8 z m 445,-151 c 0,-6 -7,-10 -15,-10 -8,0 -18,0 -22,0 -9,0 -12,20 -6,33 5,9 43,-11 43,-23 z m 50,-70 c -16,-10 5,-24 25,-16 17,6 30,-10 15,-19 -8,-5 -7,-11 1,-21 6,-7 15,-12 19,-9 9,5 21,-19 26,-50 14,-84 15,-113 3,-120 -7,-5 -10,-4 -5,3 3,6 -6,20 -20,31 -15,12 -24,21 -20,21 4,0 1,7 -6,15 -30,33 -37,43 -32,48 3,3 1,13 -5,24 -13,24 -30,101 -24,107 3,2 12,2 20,-1 11,-4 11,-8 3,-13 z m 1082,-176 c -2,-14 0,-24 7,-24 6,0 11,-13 11,-29 0,-16 7,-37 16,-45 8,-9 12,-16 7,-16 -4,0 1,-7 11,-15 11,-8 16,-15 10,-15 -5,-1 5,-12 21,-26 17,-15 23,-23 15,-18 -8,4 1,-8 20,-27 19,-20 38,-34 43,-32 4,2 7,0 7,-5 0,-15 71,-54 86,-48 7,3 18,-2 24,-9 7,-8 17,-12 23,-8 6,3 7,1 3,-5 -4,-6 -23,-14 -44,-18 -20,-4 -49,-13 -64,-21 -16,-7 -40,-18 -54,-24 -23,-8 -25,-8 -15,5 9,11 10,71 1,71 -1,0 -3,8 -5,18 -2,10 -7,26 -11,35 -4,9 -8,21 -8,25 -1,4 -7,11 -14,16 -8,5 -13,11 -13,15 3,20 0,26 -9,21 -6,-4 -9,-1 -8,7 2,7 -3,12 -9,11 -7,-2 -12,0 -12,5 3,20 -4,32 -38,58 -20,15 -33,21 -29,13 5,-9 3,-8 -6,2 -7,9 -19,14 -26,11 -7,-2 -11,2 -10,10 2,8 -6,13 -19,12 -13,0 -21,2 -18,5 3,3 -5,11 -17,18 -13,7 -17,12 -10,13 7,0 20,7 29,16 10,10 19,12 25,6 10,-10 48,-4 48,7 0,4 8,7 18,8 15,1 18,-4 14,-23 z m -215,-10 c -3,-3 -12,-4 -19,-1 -8,3 -5,6 6,6 11,1 17,-2 13,-5 z m 329,-477 c -9,-12 -26,-41 -37,-64 -12,-24 -23,-43 -25,-43 -2,0 -3,14 -2,30 1,17 5,30 9,30 11,0 29,51 23,62 -4,6 -2,8 4,4 6,-3 13,-2 17,4 4,6 11,8 16,4 6,-4 4,-14 -5,-27 z m -688,-105 c 2,-7 -3,-12 -10,-12 -8,0 -15,7 -15,15 0,18 19,15 25,-3 z m 12,-33 c -11,-8 -8,-9 15,-5 17,4 25,3 18,-1 -21,-15 105,-122 127,-108 6,3 10,2 10,-4 0,-5 9,-13 21,-16 34,-11 40,-46 12,-68 -13,-10 -21,-23 -18,-28 4,-5 2,-9 -4,-9 -11,0 -33,-39 -46,-79 -4,-14 -3,-21 2,-18 5,4 10,-1 10,-9 0,-8 -5,-13 -11,-11 -6,2 -22,0 -36,-5 -24,-9 -87,-12 -121,-5 -35,6 -69,38 -69,63 0,18 -5,24 -16,22 -10,-2 -18,5 -19,15 -2,9 1,15 6,11 5,-3 6,-10 3,-16 -5,-7 -2,-8 6,-3 10,6 8,12 -9,27 -13,10 -18,18 -12,18 8,0 8,6 -1,19 -7,11 -14,18 -18,16 -3,-2 -5,9 -4,23 0,15 3,27 7,27 11,0 56,48 52,55 -7,11 81,100 97,100 10,0 9,-3 -2,-11 z m 65,1 c -3,-5 7,-8 25,-5 16,2 33,-1 36,-7 5,-7 2,-8 -7,-3 -8,4 0,-4 16,-19 17,-14 33,-25 37,-26 4,0 10,-9 13,-20 4,-12 11,-17 18,-13 8,5 8,2 0,-9 -7,-8 -12,-17 -10,-19 1,-2 -5,4 -14,15 -10,12 -21,16 -30,11 -8,-5 -11,-5 -7,0 13,14 -25,35 -40,23 -9,-8 -11,-7 -7,4 3,8 -6,24 -19,37 -22,21 -27,41 -10,41 3,0 3,-4 -1,-10 z m -160,-62 c 5,4 4,0 -1,-8 -5,-8 -9,-18 -9,-22 0,-3 -4,-10 -8,-15 -5,-4 -8,-3 -7,2 1,6 1,12 0,15 -1,3 -3,13 -5,23 -3,14 0,16 9,8 7,-6 17,-7 21,-3 z m 635,-16 c -8,-3 -20,-9 -26,-13 -7,-5 -11,-3 -11,6 0,8 4,12 8,9 4,-2 10,0 14,6 4,6 11,7 18,3 8,-5 7,-8 -3,-11 z m -111,-13 c 9,5 23,6 30,1 10,-5 4,-10 -18,-15 -17,-4 -29,-10 -26,-15 3,-5 0,-12 -6,-16 -8,-4 -9,-3 -5,4 5,8 0,12 -13,12 -12,0 -21,5 -21,10 0,6 7,10 15,10 8,0 15,6 16,13 0,9 2,9 6,0 3,-9 10,-10 22,-4 z m 352,-76 c 13,-16 12,-17 -3,-4 -17,13 -22,21 -14,21 2,0 10,-8 17,-17 z m -566,-92 c 3,-6 -3,-15 -14,-20 -16,-9 -18,-8 -14,9 6,21 18,26 28,11 z M 1860,920 c 0,-5 -7,-10 -15,-10 -8,0 -15,5 -15,10 0,6 7,10 15,10 8,0 15,-4 15,-10 z m 168,-11 c 9,-12 9,-16 -1,-16 -7,0 -14,9 -14,20 -1,11 -1,18 0,16 2,-2 8,-11 15,-20 z m -78,-1 c 0,-4 -4,-8 -9,-8 -6,0 -12,4 -15,8 -3,5 1,9 9,9 8,0 15,-4 15,-9 z m 34,-20 c -2,-4 6,-8 18,-10 19,-2 24,-10 26,-41 2,-26 7,-35 15,-30 9,5 9,3 0,-8 -29,-36 49,-211 96,-217 23,-4 23,-3 -8,37 -19,24 -38,38 -44,35 -9,-5 -8,-3 0,6 8,8 9,19 3,29 -15,28 -39,132 -34,146 3,7 12,16 20,19 8,3 13,2 10,-3 -3,-5 2,-15 11,-22 9,-8 14,-9 10,-3 -3,6 0,11 8,11 8,0 12,-4 9,-9 -8,-13 24,-40 38,-32 10,5 10,4 1,-6 -8,-9 -5,-20 13,-47 13,-20 24,-42 24,-49 0,-8 5,-14 11,-14 5,0 7,-4 4,-10 -3,-5 0,-10 7,-11 9,0 10,-2 1,-5 -13,-6 -6,-35 11,-46 7,-5 7,-8 -1,-8 -15,0 -17,-27 -3,-32 6,-2 1,-9 -9,-15 -16,-10 -23,-10 -35,2 -8,8 -25,15 -37,15 -21,0 -21,-1 5,-25 15,-14 31,-23 35,-21 16,10 10,-49 -9,-79 -15,-25 -17,-34 -7,-44 9,-10 9,-11 -3,-7 -8,3 -30,-7 -48,-24 -19,-16 -42,-32 -53,-35 -10,-4 -19,-11 -19,-16 0,-5 -11,-9 -24,-9 -14,0 -27,-4 -30,-9 -8,-12 -70,-12 -133,0 -29,6 -56,10 -59,9 -4,-1 -10,2 -13,7 -10,13 -65,48 -74,45 -4,-1 -6,1 -5,5 2,5 -5,17 -14,28 -10,11 -25,29 -34,40 -8,11 -12,14 -8,6 5,-10 3,-12 -5,-7 -7,5 -10,11 -7,14 3,3 -2,15 -11,26 -17,20 -17,20 1,6 18,-14 19,-14 8,5 -6,12 -13,41 -17,65 -4,25 -9,47 -11,49 -2,2 1,10 6,16 6,7 11,30 13,53 1,22 5,38 10,35 4,-2 7,0 7,6 0,6 11,13 25,17 14,3 23,10 20,14 -3,4 3,7 13,6 9,0 16,4 15,11 -2,7 3,10 11,7 16,-6 58,44 49,59 -3,6 -1,7 5,3 6,-4 18,6 27,23 11,23 24,32 53,36 20,4 40,7 45,8 20,5 75,1 71,-5 z m -214,-53 c 0,-10 -65,-64 -77,-65 -6,0 -15,4 -18,10 -4,6 1,7 12,3 10,-3 15,-3 11,2 -4,4 7,18 25,31 32,23 47,29 47,19 z m 525,-363 c -3,-3 -11,0 -18,7 -9,10 -8,11 6,5 10,-3 15,-9 12,-12 z M 1765,320 c 3,-6 -1,-7 -9,-4 -18,7 -21,14 -7,14 6,0 13,-4 16,-10 z"
       id="path10"
       style="fill:#ac0066;fill-opacity:1" />
    <path
       d="m 1313,2175 c 0,-8 4,-12 9,-9 5,3 6,10 3,15 -9,13 -12,11 -12,-6 z"
       id="path12"
       style="fill:#ac0066;fill-opacity:1" />
    <path
       d="m 2585,1449 c -4,-6 -5,-12 -2,-15 2,-3 7,2 10,11 7,17 1,20 -8,4 z"
       id="path14"
       style="fill:#ac0066;fill-opacity:1" />
    <path
       d="m 2849,4266 c -3,-3 -20,-8 -39,-11 -19,-3 -37,-11 -41,-16 -3,-6 -10,-9 -15,-8 -18,5 -54,-13 -48,-23 4,-7 2,-8 -5,-4 -15,9 -73,-32 -65,-46 4,-7 2,-8 -5,-4 -16,10 -75,-50 -67,-70 4,-12 2,-15 -9,-10 -15,5 -39,-26 -28,-38 3,-3 2,-6 -4,-6 -6,0 -10,-8 -9,-17 0,-10 -4,-17 -11,-16 -9,2 -22,-30 -28,-67 -2,-20 -18,-30 -30,-20 -10,8 -14,7 -18,-2 -3,-8 -6,-6 -6,6 -1,11 -6,16 -14,13 -8,-3 -20,-1 -28,3 -8,5 -19,4 -28,-3 -12,-9 -13,-9 -8,0 6,9 -12,11 -70,8 -43,-2 -86,-4 -95,-4 -11,-1 -15,-6 -11,-16 4,-13 15,-14 52,-9 74,12 134,8 208,-16 38,-12 41,-15 32,-37 -5,-13 -9,-41 -9,-62 0,-69 51,-231 72,-231 5,0 7,-4 4,-9 -4,-5 0,-12 6,-14 10,-4 10,-6 0,-6 -7,-1 -10,-5 -7,-11 4,-6 -1,-7 -11,-3 -12,4 -15,3 -10,-5 4,-8 2,-10 -8,-6 -16,6 -106,-42 -106,-57 0,-5 -4,-8 -8,-6 -15,4 -103,-76 -97,-90 2,-8 1,-11 -5,-8 -5,3 -19,-8 -31,-24 -18,-25 -25,-28 -42,-20 -15,9 -18,8 -12,-1 4,-7 -7,-2 -24,11 -18,13 -27,25 -21,27 10,4 40,65 40,83 0,5 -6,9 -14,9 -12,0 -26,-24 -31,-50 0,-3 -6,-15 -13,-26 -6,-12 -8,-25 -4,-29 4,-5 1,-5 -6,-1 -25,15 -69,20 -149,19 l -82,-2 -10,47 c -14,57 -19,172 -8,172 4,0 7,7 7,16 0,9 -5,13 -12,9 -7,-4 -4,1 6,9 12,9 14,16 7,16 -9,0 -8,5 3,16 9,8 16,20 16,25 0,5 12,28 27,52 15,23 26,45 25,50 -1,4 3,7 9,7 5,0 7,5 4,10 -3,6 1,10 9,10 8,0 23,11 34,25 11,13 22,22 24,19 3,-2 11,4 19,13 7,10 9,15 5,11 -5,-4 -14,-4 -20,1 -15,13 -70,-35 -60,-52 4,-6 3,-9 -1,-4 -11,9 -55,-31 -55,-50 0,-8 5,-11 12,-7 7,4 8,3 4,-4 -4,-6 -12,-9 -20,-6 -15,6 -39,-42 -30,-58 4,-6 2,-8 -4,-4 -18,11 -32,-47 -39,-162 -5,-73 -3,-85 13,-98 11,-9 14,-13 8,-10 -9,4 -11,-25 -4,-44 3,-8 7,-24 8,-39 1,-7 8,-11 16,-8 10,4 13,1 9,-9 -7,-20 44,-97 59,-88 8,5 9,2 5,-10 -4,-10 -1,-19 7,-22 12,-4 11,-9 -5,-25 -10,-10 -24,-19 -30,-19 -5,0 -7,-4 -4,-10 4,-6 -1,-7 -11,-3 -14,5 -16,3 -10,-13 5,-14 4,-16 -4,-7 -9,8 -25,5 -64,-13 -28,-13 -57,-24 -64,-24 -17,0 -11,-22 8,-28 7,-3 10,0 6,7 -5,7 -1,9 8,5 9,-3 16,-2 16,4 0,5 7,13 16,16 14,5 15,4 4,-9 -7,-9 14,-2 49,15 33,17 61,35 61,40 0,6 5,9 12,7 7,-1 13,4 14,11 3,26 5,27 14,12 8,-12 10,-12 10,-1 0,9 4,10 13,4 14,-12 47,-13 47,-2 0,4 -7,10 -15,13 -13,5 -14,9 -3,28 7,13 11,26 11,29 -1,4 5,6 14,5 18,-1 66,61 58,74 -3,5 17,2 44,-5 28,-7 52,-11 55,-9 4,2 2,-1 -3,-7 -5,-6 -7,-18 -4,-27 5,-11 3,-13 -7,-7 -9,5 -11,4 -6,-3 4,-7 2,-12 -4,-12 -6,0 -8,-4 -5,-10 3,-5 2,-10 -4,-10 -9,0 -37,-68 -33,-82 1,-3 -5,-12 -13,-18 -9,-7 -15,-8 -15,-2 0,11 -33,24 -67,27 -26,2 -31,-10 -7,-19 10,-4 13,-2 9,7 -4,6 -1,5 7,-3 7,-9 24,-20 38,-26 24,-10 25,-16 25,-87 0,-46 4,-76 10,-74 6,1 10,25 11,52 0,28 4,57 8,64 4,7 10,27 12,44 3,18 9,45 14,61 6,15 7,33 3,39 -3,5 -2,7 4,4 9,-6 59,80 55,96 -2,5 2,6 8,2 9,-6 14,7 11,28 0,4 6,7 14,7 14,0 41,38 37,53 -1,4 5,7 13,7 8,0 15,5 15,11 0,5 4,8 9,4 5,-3 16,3 23,13 7,11 17,21 23,23 5,2 9,8 7,13 -2,5 4,6 13,2 9,-3 13,-2 10,4 -3,6 -1,11 4,11 19,2 25,4 74,23 l 48,19 29,-28 c 17,-16 33,-24 41,-20 8,5 10,4 5,-4 -10,-15 13,-43 30,-37 8,3 13,1 11,-4 -1,-5 6,-15 16,-22 18,-13 18,-17 3,-51 -8,-21 -11,-37 -5,-37 6,0 7,-5 4,-10 -4,-6 -12,-7 -18,-3 -7,4 -6,-1 2,-10 12,-15 12,-17 -3,-11 -10,4 -18,0 -22,-10 -12,-31 -109,-116 -162,-142 -50,-25 -54,-26 -71,-10 -19,17 -39,7 -26,-13 9,-16 -10,-21 -79,-22 -36,-1 -66,-6 -66,-11 0,-5 -7,-2 -16,6 -20,20 -51,21 -51,1 0,-8 5,-14 11,-13 6,0 19,-2 30,-7 10,-4 38,-3 62,2 24,6 44,7 44,3 0,-5 20,-7 45,-4 44,3 44,3 56,-36 7,-22 15,-38 18,-36 3,2 5,-37 4,-87 -3,-94 -17,-174 -34,-192 -11,-11 -12,-28 -1,-21 5,3 9,-1 9,-8 0,-8 -6,-12 -12,-10 -6,3 -23,-13 -37,-34 -22,-32 -23,-39 -10,-39 23,0 44,18 38,33 -3,7 2,15 9,18 15,6 47,72 43,90 -1,6 4,22 11,36 27,48 9,292 -20,274 -5,-3 -6,2 -3,10 4,10 1,16 -7,16 -12,0 -12,2 0,9 7,5 21,7 31,4 9,-3 24,3 34,12 9,9 16,14 16,10 0,-12 65,38 113,87 26,27 45,53 42,59 -4,5 -2,9 4,9 5,0 17,14 25,32 19,38 20,41 4,32 -7,-4 -2,4 13,19 26,27 35,28 83,8 15,-6 33,-11 40,-10 6,1 19,-1 29,-6 22,-10 149,1 187,15 3,1 8,2 12,1 4,0 20,4 35,10 15,6 25,7 21,4 -10,-10 18,-94 38,-116 9,-10 13,-19 9,-19 -4,0 0,-9 10,-20 10,-11 22,-17 28,-13 6,3 7,1 3,-5 -6,-11 50,-63 68,-63 24,1 10,31 -24,57 -22,16 -48,46 -60,67 -12,20 -25,35 -29,33 -6,-4 -9,16 -11,67 0,36 4,45 18,39 12,-4 14,-1 9,12 -4,10 -7,20 -7,22 0,3 -4,2 -10,-1 -18,-11 -11,53 10,98 28,58 77,109 130,135 25,12 41,22 35,22 -5,0 -2,7 8,15 11,7 26,11 35,8 9,-4 13,-2 9,4 -5,7 0,9 13,6 11,-3 17,-9 14,-14 -3,-5 2,-9 10,-9 8,0 18,5 21,10 4,6 12,7 18,3 7,-4 20,-6 31,-4 10,1 15,-2 12,-7 -8,-13 25,-25 37,-13 11,11 0,32 -16,29 -7,-1 -28,3 -47,10 -19,6 -45,10 -57,8 -15,-3 -23,0 -24,10 -2,23 -4,28 -13,43 -6,10 -5,12 3,7 9,-6 11,8 8,54 -2,36 -9,65 -16,70 -10,6 -10,9 -1,12 9,3 6,20 -12,63 -18,47 -28,60 -43,58 -11,-1 -14,0 -7,3 6,3 12,10 12,15 0,18 -137,144 -176,163 -21,10 -47,22 -56,27 -10,5 -25,6 -34,2 -11,-4 -15,-2 -11,4 9,14 -39,23 -51,11 -6,-6 -12,-6 -16,1 -10,16 -23,13 -23,-4 0,-8 5,-14 11,-13 36,5 175,-43 184,-65 2,-4 7,-5 11,-3 4,3 29,-15 56,-39 27,-25 56,-45 64,-45 11,0 12,-3 4,-8 -9,-5 -4,-20 16,-55 15,-26 31,-44 36,-40 4,5 5,3 2,-3 -3,-6 1,-33 9,-60 9,-27 15,-85 16,-128 0,-84 -9,-99 -57,-102 -10,-1 -21,-7 -23,-13 -2,-6 -9,-11 -16,-11 -20,0 -67,-40 -61,-51 4,-5 1,-9 -4,-9 -18,0 -51,-34 -51,-52 0,-10 -4,-18 -8,-18 -14,0 -43,-93 -33,-103 12,-12 -16,-57 -35,-57 -7,0 -16,-5 -20,-12 -5,-7 -3,-8 6,-3 9,6 11,4 5,-4 -5,-9 -11,-9 -17,-3 -7,7 -19,7 -37,0 -14,-5 -55,-9 -91,-8 -36,1 -77,3 -92,3 -16,0 -28,4 -28,9 0,4 -5,8 -11,8 -5,0 -7,-6 -4,-12 4,-7 1,-6 -7,3 -7,9 -20,15 -29,14 -11,-2 -16,7 -17,33 -2,19 -5,39 -8,43 -2,4 1,11 7,15 7,4 9,21 5,45 l -6,38 30,-11 c 17,-5 42,-8 56,-5 13,2 27,0 30,-4 3,-5 17,-6 31,-3 21,6 24,4 18,-7 -7,-12 -6,-12 9,0 14,12 17,12 14,1 -2,-8 2,-15 7,-15 6,-1 29,-10 53,-22 23,-12 42,-17 42,-12 0,6 5,7 10,4 6,-4 8,-11 5,-16 -4,-5 0,-9 8,-9 8,0 22,-9 32,-20 10,-11 22,-17 27,-14 26,16 -88,94 -137,94 -17,0 -24,4 -19,12 4,7 3,8 -4,4 -7,-4 -12,-3 -12,2 0,13 -88,30 -177,34 -23,1 -38,5 -32,9 26,16 -68,206 -96,195 -8,-3 -17,-1 -20,5 -4,5 -2,8 3,7 6,-2 10,2 10,7 0,6 -4,9 -10,7 -5,-1 -7,2 -4,7 3,5 -12,24 -34,41 -36,29 -45,30 -41,7 1,-5 -3,-6 -8,-2 -6,3 -8,11 -5,18 2,7 -8,20 -23,29 -16,10 -22,18 -15,18 6,0 12,9 12,20 0,11 9,35 20,55 11,19 18,35 15,35 -2,0 9,15 26,32 16,18 29,37 29,43 0,5 16,20 36,33 26,17 34,28 29,40 -5,13 -4,14 6,5 9,-9 18,-8 37,7 14,11 31,20 39,20 8,0 11,5 7,12 -4,6 -3,8 4,4 6,-3 23,-1 39,6 15,6 32,10 37,9 4,-1 15,6 23,16 8,10 12,12 8,6 -4,-9 4,-13 28,-13 23,0 34,5 34,15 0,18 -9,19 -26,3 -11,-10 -13,-10 -7,0 5,8 0,12 -12,12 -10,0 -21,-2 -23,-4 z m -337,-403 c -10,-4 -5,-11 14,-24 15,-10 32,-16 36,-13 5,3 7,2 6,-3 -2,-5 11,-25 29,-44 17,-19 41,-45 53,-59 12,-14 18,-19 14,-11 -4,9 -3,12 4,7 6,-4 9,-12 6,-20 -6,-17 14,-69 24,-62 5,3 8,-14 8,-37 l -1,-42 -40,3 c -30,2 -36,0 -25,-8 11,-8 6,-10 -22,-5 -21,2 -38,1 -38,-4 0,-5 -7,-11 -14,-14 -10,-4 -13,-1 -10,7 3,7 -6,26 -19,42 -13,16 -22,35 -19,43 3,9 0,11 -8,6 -8,-5 -11,-4 -7,1 3,5 -1,33 -8,62 -20,76 -22,161 -4,173 8,5 19,8 24,8 6,0 4,-3 -3,-6 z m 199,-373 c 1,-47 -1,-73 -6,-78 -2,-2 -14,4 -27,12 -14,9 -28,13 -33,9 -4,-5 -5,-3 -2,3 4,7 -11,28 -33,48 -25,22 -34,36 -24,36 8,0 13,3 11,8 -3,4 21,7 54,7 h 59 z m -621,-192 c 0,-23 -71,-107 -91,-107 -9,-1 -22,6 -29,14 -7,8 -16,13 -20,10 -5,-3 -12,0 -16,6 -4,8 -3,9 4,5 7,-4 12,-1 12,8 0,9 -6,16 -14,16 -8,0 -18,5 -22,12 -4,7 -3,8 4,4 14,-9 15,3 2,24 -8,12 -1,16 38,20 93,10 132,6 132,-12 z m 531,-91 c -6,-8 -9,-16 -6,-19 3,-2 -2,-5 -10,-5 -13,0 -13,3 2,19 19,21 31,25 14,5 z m -91,-87 c 0,-5 -5,-10 -11,-10 -5,0 -7,5 -4,10 3,6 8,10 11,10 2,0 4,-4 4,-10 z"
       id="path16"
       style="fill:#ac0066;fill-opacity:1" />
    <path
       d="m 2925,4261 c -6,-11 9,-23 19,-14 9,9 7,23 -3,23 -6,0 -12,-4 -16,-9 z"
       id="path18"
       style="fill:#ac0066;fill-opacity:1" />
    <path
       d="m 1579,4234 c 15,-11 46,-17 96,-18 40,0 71,-4 69,-8 -4,-6 50,-25 91,-32 6,-1 30,-15 54,-30 24,-16 50,-29 57,-30 7,-1 28,-19 45,-39 17,-20 36,-34 42,-30 6,3 7,1 3,-5 -7,-12 27,-35 37,-26 3,3 3,-3 0,-14 -3,-13 3,-25 18,-36 13,-9 20,-16 16,-16 -4,0 -3,-8 2,-18 7,-14 5,-22 -9,-34 -10,-9 -21,-14 -24,-11 -3,4 -6,1 -6,-5 0,-7 -8,-12 -17,-13 -15,0 -15,-2 2,-8 13,-5 31,-3 49,6 27,14 50,7 51,-15 2,-26 18,-51 28,-45 8,5 8,2 0,-9 -7,-8 -10,-17 -8,-20 7,-7 14,-44 17,-83 1,-16 5,-34 9,-40 4,-5 2,-34 -3,-64 -8,-39 -8,-58 0,-72 10,-15 9,-17 -3,-13 -9,4 -15,0 -15,-7 0,-8 -3,-23 -6,-35 -4,-14 -1,-21 10,-21 9,0 14,3 11,5 -3,3 -1,10 4,16 14,17 21,65 10,71 -5,4 -2,17 7,30 12,19 14,39 8,104 -3,45 -11,81 -16,81 -5,0 -6,5 -3,10 8,13 -32,136 -51,154 -8,8 -14,19 -14,25 0,6 -5,11 -11,11 -5,0 -7,-5 -3,-12 4,-7 3,-8 -5,-4 -9,6 -9,11 -1,21 8,10 -6,31 -65,91 -41,43 -75,74 -75,70 0,-5 -8,1 -19,12 -10,12 -26,22 -35,22 -9,0 -16,5 -16,11 0,6 -7,9 -15,5 -8,-3 -14,0 -12,7 1,7 -4,11 -12,9 -7,-2 -22,5 -32,14 -10,9 -32,17 -48,18 -16,1 -27,4 -24,9 4,7 -13,10 -79,11 -21,0 -38,4 -38,8 0,4 -21,8 -47,8 -47,0 -47,0 -24,-16 z"
       id="path20"
       style="fill:#ac0066;fill-opacity:1" />
    <path
       d="m 3352,3680 c -4,-3 -8,-14 -8,-25 -4,-47 -31,-105 -64,-135 -3,-3 -18,-22 -33,-43 -16,-21 -33,-34 -39,-31 -7,4 -8,2 -4,-4 4,-7 1,-12 -8,-12 -9,0 -16,-7 -16,-15 0,-26 19,-16 77,39 36,36 54,60 50,70 -4,9 -1,13 6,11 7,-3 24,21 41,58 16,34 32,69 36,77 5,11 2,16 -12,16 -10,0 -22,-3 -26,-6 z"
       id="path22"
       style="fill:#ac0066;fill-opacity:1" />
    <path
       d="m 3171,3371 c -7,-5 -9,-10 -4,-12 4,-2 18,-17 31,-33 18,-24 23,-26 28,-12 8,22 -37,68 -55,57 z"
       id="path24"
       style="fill:#ac0066;fill-opacity:1" />
    <path
       d="m 1812,3304 c -12,-8 -22,-21 -22,-29 0,-11 7,-10 39,3 23,10 37,22 34,29 -7,17 -24,16 -51,-3 z"
       id="path26"
       style="fill:#ac0066;fill-opacity:1" />
    <path
       d="m 2245,3260 c -10,-16 6,-32 27,-27 14,4 18,2 14,-9 -3,-8 1,-14 9,-14 7,0 17,-5 21,-12 5,-7 2,-9 -7,-4 -8,4 3,-8 23,-27 21,-19 35,-37 32,-40 -3,-3 -1,-8 4,-11 5,-3 15,1 22,9 9,11 -1,26 -54,79 -66,66 -80,75 -91,56 z"
       id="path28"
       style="fill:#ac0066;fill-opacity:1" />
    <path
       d="m 1663,2917 c 13,-23 27,-54 31,-69 3,-16 11,-28 17,-28 6,0 8,-4 5,-8 -3,-5 -2,-50 2,-101 4,-51 4,-95 0,-97 -13,-8 -9,-41 6,-53 11,-9 15,-5 20,20 11,55 8,101 -6,93 -10,-6 -10,-4 -2,7 11,14 11,74 -1,139 -8,40 -44,130 -54,131 -3,0 -14,2 -24,4 -16,3 -15,-1 6,-38 z"
       id="path30"
       style="fill:#ac0066;fill-opacity:1" />
    <path
       d="m 2124,2851 c 4,-31 11,-58 16,-59 6,-2 7,-8 4,-14 -3,-5 4,-21 17,-34 19,-20 20,-24 5,-18 -16,6 -16,3 4,-36 14,-27 25,-39 31,-33 10,10 1,46 -10,39 -3,-2 -7,6 -7,17 -2,31 -28,127 -34,127 -3,0 -4,15 -2,33 3,27 0,34 -13,34 -15,0 -17,-8 -11,-56 z"
       id="path32"
       style="fill:#ac0066;fill-opacity:1" />
    <path
       d="m 2207,2653 c -12,-11 -8,-30 14,-57 31,-40 45,-18 19,28 -24,39 -24,39 -33,29 z"
       id="path34"
       style="fill:#ac0066;fill-opacity:1" />
    <path
       d="m 2661,2332 c 0,-11 2,-12 6,-4 3,8 9,10 16,4 15,-12 67,-21 67,-12 0,3 14,5 30,2 17,-2 30,0 30,6 0,16 -18,24 -32,16 -10,-6 -63,-9 -70,-4 -2,1 -13,3 -25,6 -17,3 -23,-1 -22,-14 z"
       id="path36"
       style="fill:#ac0066;fill-opacity:1" />
    <path
       d="m 3308,2245 c -2,-3 6,-35 19,-72 20,-57 23,-84 21,-170 -2,-57 -6,-103 -10,-103 -7,0 -22,-37 -23,-56 0,-6 -8,-18 -17,-27 -9,-10 -14,-25 -11,-37 4,-15 1,-19 -9,-15 -9,4 -30,-12 -55,-39 -23,-25 -57,-53 -77,-62 -19,-10 -33,-21 -30,-26 3,-4 -2,-5 -10,-2 -8,3 -24,-4 -35,-15 -22,-22 -37,-28 -26,-11 3,6 3,10 -2,10 -13,0 -28,-14 -31,-28 -3,-17 49,-4 66,17 11,12 12,13 6,1 -6,-12 -5,-13 7,-3 8,6 19,12 24,14 23,5 55,23 55,31 0,5 4,7 9,4 14,-9 114,97 145,154 16,29 24,50 17,46 -17,-11 -13,5 4,18 8,6 16,25 18,41 2,17 7,38 12,48 10,23 0,160 -15,210 -7,23 -15,35 -22,31 -6,-4 -8,-3 -5,4 13,20 -9,53 -25,37 z m 59,-227 c -3,-8 -6,-5 -6,6 -1,11 2,17 5,13 3,-3 4,-12 1,-19 z"
       id="path38"
       style="fill:#ac0066;fill-opacity:1" />
    <path
       d="m 2602,2137 c -5,-6 -22,-36 -37,-65 -16,-30 -34,-56 -42,-59 -15,-6 -18,-33 -4,-33 17,0 61,66 61,91 0,19 2,21 10,9 8,-12 10,-12 15,2 4,10 3,22 -1,29 -4,7 -3,9 3,6 6,-4 13,0 17,8 7,19 -9,28 -22,12 z"
       id="path40"
       style="fill:#ac0066;fill-opacity:1" />
    <path
       d="m 935,2020 c -4,-6 0,-10 7,-10 9,-1 7,-5 -4,-14 -10,-7 -15,-16 -11,-19 3,-4 1,-7 -6,-7 -8,0 -11,-8 -8,-20 3,-11 1,-20 -4,-20 -16,0 -8,-114 9,-134 11,-13 12,-17 3,-11 -10,5 -12,4 -7,-3 4,-7 9,-21 11,-31 5,-28 36,-72 45,-66 5,3 12,0 16,-6 4,-8 3,-9 -4,-5 -18,11 -14,-3 7,-25 11,-12 24,-18 30,-14 7,4 10,1 9,-7 -4,-20 100,-67 160,-72 34,-3 52,-1 52,6 0,6 3,8 6,5 4,-4 2,-13 -5,-21 -17,-20 -23,-51 -26,-131 -2,-53 1,-75 14,-89 9,-11 10,-16 4,-12 -9,5 -11,2 -6,-11 10,-29 24,-43 37,-36 7,5 7,2 -1,-8 -10,-12 -9,-20 5,-41 24,-37 68,-79 85,-82 22,-3 52,-37 52,-59 0,-11 6,-22 14,-25 10,-3 11,2 6,19 -3,13 -3,20 2,14 13,-16 157,-18 213,-4 40,10 55,20 66,41 15,28 14,29 -20,43 -43,18 -97,19 -115,3 -11,-11 -12,-10 -6,1 6,11 3,13 -16,8 -13,-4 -28,-7 -32,-7 -5,0 -5,-4 -2,-10 3,-5 0,-8 -7,-5 -7,3 -24,-4 -38,-15 l -25,-19 25,2 c 14,0 27,4 30,7 11,11 52,31 46,22 -3,-6 2,-8 11,-6 46,9 93,11 93,3 0,-5 5,-9 11,-9 5,0 7,5 3,12 -4,7 -3,8 4,4 14,-9 16,-36 3,-36 -5,0 -17,-7 -25,-16 -9,-8 -16,-11 -16,-5 0,7 -10,9 -22,6 -42,-10 -126,-10 -125,0 1,6 -6,9 -16,7 -9,-2 -27,4 -39,13 -13,8 -30,15 -40,15 -10,0 -18,5 -18,10 0,6 -11,15 -25,22 -13,6 -22,14 -20,18 3,4 -2,13 -10,20 -31,26 -65,100 -71,156 -3,33 -7,68 -9,79 -1,11 2,25 7,32 6,7 8,18 6,24 -6,19 34,56 80,74 44,18 48,38 7,31 -14,-3 -28,0 -31,6 -4,6 -3,8 3,5 12,-7 56,36 59,58 4,25 -14,17 -57,-26 -32,-32 -38,-43 -28,-50 10,-6 9,-8 -6,-8 -11,0 -37,-4 -57,-9 -25,-6 -36,-6 -32,0 4,6 -8,8 -30,7 -23,-2 -40,1 -45,10 -5,8 -14,10 -21,6 -8,-5 -11,-4 -6,3 3,6 -2,13 -12,16 -17,6 -107,86 -96,86 2,0 -2,10 -10,23 -28,44 -48,150 -36,190 1,4 3,10 4,15 1,4 5,13 9,20 5,6 5,17 2,22 -3,6 -2,10 3,10 6,0 12,6 15,14 6,16 -19,30 -28,16 z m 125,-405 c 11,-13 10,-14 -4,-9 -9,3 -16,10 -16,15 0,13 6,11 20,-6 z m 643,-480 c -3,-9 -8,-14 -10,-11 -3,3 -2,9 2,15 9,16 15,13 8,-4 z m -293,-15 c 0,-5 -2,-10 -4,-10 -3,0 -8,5 -11,10 -3,6 -1,10 4,10 6,0 11,-4 11,-10 z"
       id="path42"
       style="fill:#ac0066;fill-opacity:1" />
    <path
       d="m 2115,1980 c -3,-5 -11,-7 -18,-5 -16,6 -60,-62 -51,-78 4,-7 3,-9 -1,-4 -13,11 -44,-23 -38,-41 4,-14 3,-14 -5,-3 -11,16 -36,5 -26,-11 4,-6 3,-8 -3,-5 -5,3 -25,-4 -44,-17 -19,-13 -37,-24 -41,-25 -5,0 -9,-1 -10,-2 -38,-11 -133,-27 -140,-23 -5,3 -8,-1 -8,-9 0,-18 49,-20 69,-3 11,8 13,8 7,-1 -7,-13 0,-12 42,4 9,3 19,7 22,8 35,9 49,18 44,27 -5,8 -1,9 11,5 9,-4 25,-2 33,5 12,10 14,10 8,1 -15,-26 -15,-53 1,-53 10,0 14,6 10,20 -3,11 -2,18 2,16 4,-3 19,6 34,20 14,13 32,24 39,24 10,1 9,4 -2,13 -16,13 -26,42 -11,33 5,-4 20,10 33,31 12,20 26,41 29,46 4,6 26,1 53,-12 44,-22 66,-21 66,1 0,6 -6,5 -16,-2 -8,-8 -14,-9 -13,-4 4,21 -2,28 -11,14 -8,-13 -10,-13 -10,1 0,18 -46,43 -55,29 z"
       id="path44"
       style="fill:#ac0066;fill-opacity:1" />
    <path
       d="m 1910,1728 c -13,-24 -22,-43 -20,-43 2,0 -2,-10 -9,-23 -7,-12 -14,-39 -16,-58 -3,-36 -15,-60 -15,-31 0,9 -10,23 -22,31 -12,9 -18,16 -13,16 5,0 -4,14 -20,30 -16,17 -37,30 -47,30 -11,0 -17,4 -14,9 6,9 -22,26 -36,23 -5,-1 -8,2 -8,7 0,16 -101,32 -171,27 -65,-5 -119,-22 -119,-38 0,-4 -5,-7 -11,-6 -6,2 -13,-5 -14,-14 -4,-22 11,-24 18,-4 3,8 15,14 26,13 26,-2 11,-30 -29,-54 -17,-9 -30,-20 -30,-24 0,-11 24,-16 35,-7 74,58 75,60 65,78 -6,10 -6,21 -2,24 8,5 165,1 202,-5 8,-1 21,-9 28,-18 8,-9 11,-11 8,-5 -3,6 1,11 8,11 8,0 12,-5 10,-11 -4,-13 63,-59 75,-52 4,3 8,-1 8,-9 0,-8 -4,-12 -8,-9 -5,2 7,-18 26,-47 19,-28 35,-57 35,-65 0,-8 4,-14 9,-14 4,0 6,-17 4,-37 -4,-36 -3,-37 13,-21 14,13 15,22 8,40 -17,39 2,150 38,222 39,78 29,106 -12,34 z"
       id="path46"
       style="fill:#ac0066;fill-opacity:1" />
    <path
       d="m 1465,1700 c 3,-5 8,-10 11,-10 2,0 4,5 4,10 0,6 -5,10 -11,10 -5,0 -7,-4 -4,-10 z"
       id="path48"
       style="fill:#ac0066;fill-opacity:1" />
    <path
       d="m 2798,736 c -3,-14 -1,-23 3,-20 5,3 9,0 9,-5 0,-6 -6,-11 -14,-11 -8,0 -20,-19 -27,-44 -7,-25 -16,-43 -20,-41 -3,3 -14,-4 -23,-14 -13,-14 -14,-20 -5,-23 7,-2 -3,-11 -22,-20 -43,-21 -81,-56 -74,-69 4,-5 20,0 37,12 23,17 27,24 16,30 -9,6 -5,8 12,7 20,-2 29,4 42,32 10,19 18,31 18,26 0,-5 7,-3 15,4 9,7 14,15 11,17 -2,3 7,21 20,40 13,20 24,46 24,59 0,13 0,27 1,31 2,21 -19,10 -23,-11 z"
       id="path50"
       style="fill:#ac0066;fill-opacity:1" />
  </g>
</svg>
